# xmcd
#
# Track frame offsets:
# 150
# 20747
# 39070
# 56135
# 75290
# 94155
# 111087
# 129954
# 145857
# 163415
# 185250
# 209622
# 226925
# 246345
#
# Disc length: 3512 seconds
#
#
# Revision: 4
# Processed by: cddbd v1.5.1PL2 Copyright (c) Steve Scherf et al.
# Submitted via: FreeRIP 2.942 
#
DISCID=b90db60e
DTITLE=Asa De Águia - A Lenda
DYEAR=1900
DGENRE=Axé
TTITLE0=Inter Asa
TTITLE1=Pensando Em Você
TTITLE2=Luar De Verão
TTITLE3=Prá Lá De Bragadá
TTITLE4=Fly And Fly
TTITLE5=Alegou
TTITLE6=Rio Elétrico
TTITLE7=Xô Satanás
TTITLE8=Alimente
TTITLE9=Olivença
TTITLE10=A Lenda
TTITLE11=Jamalaika
TTITLE12=Coisas Que Eu Guardei
TTITLE13=Eu Moro Perto Daqui
EXTD=
EXTT0=
EXTT1=
EXTT2=
EXTT3=
EXTT4=
EXTT5=
EXTT6=
EXTT7=
EXTT8=
EXTT9=
EXTT10=
EXTT11=
EXTT12=
EXTT13=
PLAYORDER=
